<svg width="150" height="68" viewBox="0 0 150 68" fill="none" xmlns="http://www.w3.org/2000/svg">
<g clip-path="url(#clip0_1_8)">
<path d="M0 67H150" stroke="#FCBB08" stroke-width="2" stroke-linecap="square"/>
<path d="M50.3474 55.2856C48.4274 55.2856 46.6394 54.9616 44.9834 54.3136C43.3514 53.6656 41.9354 52.7656 40.7354 51.6136C39.5354 50.4376 38.5994 49.0696 37.9274 47.5096C37.2554 45.9496 36.9194 44.2456 36.9194 42.3976C36.9194 40.5496 37.2554 38.8456 37.9274 37.2856C38.5994 35.7256 39.5354 34.3696 40.7354 33.2176C41.9354 32.0416 43.3514 31.1296 44.9834 30.4816C46.6154 29.8336 48.4034 29.5096 50.3474 29.5096C52.2674 29.5096 54.0314 29.8336 55.6394 30.4816C57.2714 31.1056 58.6874 32.0056 59.8874 33.1816C61.1114 34.3336 62.0474 35.6896 62.6954 37.2496C63.3674 38.8096 63.7034 40.5256 63.7034 42.3976C63.7034 44.2696 63.3674 45.9856 62.6954 47.5456C62.0474 49.1056 61.1114 50.4736 59.8874 51.6496C58.6874 52.8016 57.2714 53.7016 55.6394 54.3496C54.0314 54.9736 52.2674 55.2856 50.3474 55.2856ZM50.3474 52.0816C51.7394 52.0816 53.0234 51.8416 54.1994 51.3616C55.3994 50.8816 56.4314 50.2096 57.2954 49.3456C58.1834 48.4576 58.8674 47.4256 59.3474 46.2496C59.8514 45.0736 60.1034 43.7896 60.1034 42.3976C60.1034 41.0056 59.8514 39.7216 59.3474 38.5456C58.8674 37.3696 58.1834 36.3496 57.2954 35.4856C56.4314 34.5976 55.3994 33.9136 54.1994 33.4336C53.0234 32.9536 51.7394 32.7136 50.3474 32.7136C48.9314 32.7136 47.6234 32.9536 46.4234 33.4336C45.2474 33.9136 44.2154 34.5976 43.3274 35.4856C42.4394 36.3496 41.7434 37.3696 41.2394 38.5456C40.7594 39.7216 40.5194 41.0056 40.5194 42.3976C40.5194 43.7896 40.7594 45.0736 41.2394 46.2496C41.7434 47.4256 42.4394 48.4576 43.3274 49.3456C44.2154 50.2096 45.2474 50.8816 46.4234 51.3616C47.6234 51.8416 48.9314 52.0816 50.3474 52.0816ZM69.2058 54.9976V29.7976H72.1578L83.4618 48.8416H81.8778L93.0378 29.7976H95.9898L96.0258 54.9976H92.5698L92.5338 35.2336H93.3618L83.4258 51.9376H81.7698L71.7618 35.2336H72.6618V54.9976H69.2058Z" fill="white"/>
<path d="M111.678 19.6298L110.265 19.1976C110.069 19.1377 109.862 19.1941 109.729 19.3433C109.386 19.7309 109.009 20.0994 108.609 20.4387C105.645 22.9537 101.925 23.8125 97.85 22.9233C93.7957 22.0386 91.9322 19.692 89.353 16.4441C89.1686 16.2118 88.981 15.9756 88.7891 15.7357C88.7673 15.7083 88.7416 15.6724 88.7144 15.6344C88.6428 15.5343 88.5536 15.4098 88.4281 15.287C88.2576 15.1201 88.0719 14.9646 87.8761 14.825C87.4716 14.5364 87.2018 14.082 87.1361 13.5784L86.7024 10.2566C86.6836 10.1126 86.6098 9.97958 86.4971 9.88658C86.3846 9.79352 86.2423 9.74818 86.1017 9.76061L83.9617 9.94883C83.6692 9.97446 83.4637 10.2384 83.5027 10.5381L83.9187 13.7244C83.9642 14.0732 83.8514 14.428 83.6092 14.6977C83.2393 15.1095 83.0509 15.6178 83.0642 16.1673C83.2326 23.1161 87.8916 28.2594 95.5271 29.9255C98.8224 30.6445 102.327 30.2145 105.394 28.7146C106.012 28.4127 106.596 28.0749 107.144 27.7029C107.909 27.1844 108.603 26.5995 109.222 25.9536C110.326 24.7991 111.13 23.5062 111.609 22.111C111.814 21.5124 111.971 20.8917 112.074 20.266C112.12 19.989 111.948 19.7123 111.678 19.6298ZM84.6332 10.9875L85.7136 10.8925L86.0011 13.0943L85.5648 13.105L84.9117 13.121L84.6332 10.9875ZM106.531 26.7872C103.561 28.8018 99.5296 29.6956 95.7032 28.8607C88.613 27.3135 84.2877 22.5775 84.1329 16.1918C84.1246 15.8488 84.2808 15.6009 84.4132 15.4535C84.728 15.1029 84.9232 14.6684 84.9802 14.2102L86.1886 14.1806C86.3811 14.7938 86.7672 15.3339 87.2911 15.7076C87.4387 15.8129 87.5786 15.9299 87.7067 16.0553C87.7595 16.107 87.8063 16.1726 87.8607 16.2485C87.8956 16.2973 87.9317 16.3477 87.9729 16.3992C88.1639 16.6383 88.3508 16.8735 88.5345 17.1049C91.1583 20.409 93.2307 23.0186 97.6737 23.9881C99.9004 24.474 102.05 24.4727 104.061 23.9844C105.886 23.5414 107.566 22.7073 109.057 21.5031L109.093 21.5206L109.285 21.6142C108.515 22.8093 107.534 23.8047 106.397 24.5753C103.901 26.2686 100.662 26.879 97.3163 26.149C92.1068 25.0123 88.3962 22.2086 86.8678 18.2544C86.758 17.9702 86.4468 17.8198 86.1728 17.9184C85.8987 18.0169 85.7657 18.3273 85.8755 18.6116C87.548 22.9387 91.5485 25.9938 97.1401 27.2138C99.8685 27.8091 102.578 27.5923 104.976 26.5867C105.705 26.2813 106.39 25.9101 107.027 25.478C108.334 24.5915 109.435 23.4491 110.278 22.0992L110.424 22.1707C109.669 24.0172 108.285 25.5976 106.531 26.7872ZM110.771 21.1544L110.552 21.0477L109.921 20.7396C110.057 20.6079 110.189 20.4733 110.318 20.3361L110.927 20.5226C110.882 20.7348 110.829 20.9456 110.771 21.1544Z" fill="white"/>
</g>
<defs>
<clipPath id="clip0_1_8">
<rect width="150" height="68" fill="white"/>
</clipPath>
</defs>
</svg>
